<svg width="690" height="167" viewBox="0 0 690 167" fill="none" xmlns="http://www.w3.org/2000/svg">
<mask id="path-1-outside-1_0_1" maskUnits="userSpaceOnUse" x="-1" y="-1" width="693" height="169" fill="black">
<rect fill="white" x="-1" y="-1" width="693" height="169"/>
<path d="M21.6719 97.9375L27.3594 70.2656H0.5625V40.0781H33.375L41.1406 0.921875H72.3125L64.3281 40.0781H88.2812L96.1562 0.921875H127.219L119.562 40.0781H134.547V70.2656H113.438L107.859 97.9375H134.547V128.125H101.844L94.0781 166.625H62.9062L70.5625 128.125H46.7188L38.8438 166.625H7.89062L15.875 128.125H0.5625V97.9375H21.6719ZM52.7344 97.9375H76.6875L82.375 70.2656H58.5312L52.7344 97.9375ZM256.938 137.531H200.5L192.734 164H142.094L202.359 3.65625H256.391L316.656 164H264.812L256.938 137.531ZM246.547 102.859L228.828 45.2188L211.219 102.859H246.547ZM332.844 3.65625H382.391V59.7656H436.531V3.65625H486.297V164H436.531V99.1406H382.391V164H332.844V3.65625ZM519.438 3.65625H568.984V64.25L620.938 3.65625H686.781L628.375 64.1406L689.406 164H628.375L594.578 98.0469L568.984 124.844V164H519.438V3.65625Z"/>
</mask>
<path d="M21.6719 97.9375V98.9375H22.4872L22.6514 98.1388L21.6719 97.9375ZM27.3594 70.2656L28.3389 70.467L28.5858 69.2656H27.3594V70.2656ZM0.5625 70.2656H-0.4375V71.2656H0.5625V70.2656ZM0.5625 40.0781V39.0781H-0.4375V40.0781H0.5625ZM33.375 40.0781V41.0781H34.1962L34.3559 40.2727L33.375 40.0781ZM41.1406 0.921875V-0.078125H40.3195L40.1597 0.72734L41.1406 0.921875ZM72.3125 0.921875L73.2923 1.12167L73.537 -0.078125H72.3125V0.921875ZM64.3281 40.0781L63.3483 39.8783L63.1036 41.0781H64.3281V40.0781ZM88.2812 40.0781V41.0781H89.1002L89.2616 40.2753L88.2812 40.0781ZM96.1562 0.921875V-0.078125H95.3373L95.1759 0.724706L96.1562 0.921875ZM127.219 0.921875L128.2 1.11377L128.433 -0.078125H127.219V0.921875ZM119.562 40.0781L118.581 39.8862L118.348 41.0781H119.562V40.0781ZM134.547 40.0781H135.547V39.0781H134.547V40.0781ZM134.547 70.2656V71.2656H135.547V70.2656H134.547ZM113.438 70.2656V69.2656H112.619L112.457 70.068L113.438 70.2656ZM107.859 97.9375L106.879 97.7399L106.638 98.9375H107.859V97.9375ZM134.547 97.9375H135.547V96.9375H134.547V97.9375ZM134.547 128.125V129.125H135.547V128.125H134.547ZM101.844 128.125V127.125H101.025L100.863 127.927L101.844 128.125ZM94.0781 166.625V167.625H94.8966L95.0584 166.823L94.0781 166.625ZM62.9062 166.625L61.9255 166.43L61.6878 167.625H62.9062V166.625ZM70.5625 128.125L71.5433 128.32L71.7809 127.125H70.5625V128.125ZM46.7188 128.125V127.125H45.9026L45.739 127.925L46.7188 128.125ZM38.8438 166.625V167.625H39.6599L39.8235 166.825L38.8438 166.625ZM7.89062 166.625L6.91146 166.422L6.66196 167.625H7.89062V166.625ZM15.875 128.125L16.8542 128.328L17.1037 127.125H15.875V128.125ZM0.5625 128.125H-0.4375V129.125H0.5625V128.125ZM0.5625 97.9375V96.9375H-0.4375V97.9375H0.5625ZM52.7344 97.9375L51.7556 97.7325L51.5032 98.9375H52.7344V97.9375ZM76.6875 97.9375V98.9375H77.5029L77.667 98.1388L76.6875 97.9375ZM82.375 70.2656L83.3545 70.467L83.6014 69.2656H82.375V70.2656ZM58.5312 70.2656V69.2656H57.719L57.5525 70.0606L58.5312 70.2656ZM22.6514 98.1388L28.3389 70.467L26.3799 70.0643L20.6924 97.7362L22.6514 98.1388ZM27.3594 69.2656H0.5625V71.2656H27.3594V69.2656ZM1.5625 70.2656V40.0781H-0.4375V70.2656H1.5625ZM0.5625 41.0781H33.375V39.0781H0.5625V41.0781ZM34.3559 40.2727L42.1215 1.11641L40.1597 0.72734L32.3941 39.8836L34.3559 40.2727ZM41.1406 1.92188H72.3125V-0.078125H41.1406V1.92188ZM71.3327 0.722076L63.3483 39.8783L65.308 40.2779L73.2923 1.12167L71.3327 0.722076ZM64.3281 41.0781H88.2812V39.0781H64.3281V41.0781ZM89.2616 40.2753L97.1366 1.11904L95.1759 0.724706L87.3009 39.881L89.2616 40.2753ZM96.1562 1.92188H127.219V-0.078125H96.1562V1.92188ZM126.237 0.729978L118.581 39.8862L120.544 40.27L128.2 1.11377L126.237 0.729978ZM119.562 41.0781H134.547V39.0781H119.562V41.0781ZM133.547 40.0781V70.2656H135.547V40.0781H133.547ZM134.547 69.2656H113.438V71.2656H134.547V69.2656ZM112.457 70.068L106.879 97.7399L108.84 98.1351L114.418 70.4632L112.457 70.068ZM107.859 98.9375H134.547V96.9375H107.859V98.9375ZM133.547 97.9375V128.125H135.547V97.9375H133.547ZM134.547 127.125H101.844V129.125H134.547V127.125ZM100.863 127.927L93.0979 166.427L95.0584 166.823L102.824 128.323L100.863 127.927ZM94.0781 165.625H62.9062V167.625H94.0781V165.625ZM63.887 166.82L71.5433 128.32L69.5817 127.93L61.9255 166.43L63.887 166.82ZM70.5625 127.125H46.7188V129.125H70.5625V127.125ZM45.739 127.925L37.864 166.425L39.8235 166.825L47.6985 128.325L45.739 127.925ZM38.8438 165.625H7.89062V167.625H38.8438V165.625ZM8.86979 166.828L16.8542 128.328L14.8958 127.922L6.91146 166.422L8.86979 166.828ZM15.875 127.125H0.5625V129.125H15.875V127.125ZM1.5625 128.125V97.9375H-0.4375V128.125H1.5625ZM0.5625 98.9375H21.6719V96.9375H0.5625V98.9375ZM52.7344 98.9375H76.6875V96.9375H52.7344V98.9375ZM77.667 98.1388L83.3545 70.467L81.3955 70.0643L75.708 97.7362L77.667 98.1388ZM82.375 69.2656H58.5312V71.2656H82.375V69.2656ZM57.5525 70.0606L51.7556 97.7325L53.7131 98.1425L59.51 70.4707L57.5525 70.0606ZM256.938 137.531L257.896 137.246L257.683 136.531H256.938V137.531ZM200.5 137.531V136.531H199.751L199.54 137.25L200.5 137.531ZM192.734 164V165H193.483L193.694 164.282L192.734 164ZM142.094 164L141.158 163.648L140.65 165H142.094V164ZM202.359 3.65625V2.65625H201.667L201.423 3.30443L202.359 3.65625ZM256.391 3.65625L257.327 3.30443L257.083 2.65625H256.391V3.65625ZM316.656 164V165H318.1L317.592 163.648L316.656 164ZM264.812 164L263.854 164.285L264.067 165H264.812V164ZM246.547 102.859V103.859H247.9L247.503 102.566L246.547 102.859ZM228.828 45.2188L229.784 44.9249L228.825 41.8058L227.872 44.9266L228.828 45.2188ZM211.219 102.859L210.262 102.567L209.868 103.859H211.219V102.859ZM256.938 136.531H200.5V138.531H256.938V136.531ZM199.54 137.25L191.775 163.718L193.694 164.282L201.46 137.813L199.54 137.25ZM192.734 163H142.094V165H192.734V163ZM143.03 164.352L203.295 4.00807L201.423 3.30443L141.158 163.648L143.03 164.352ZM202.359 4.65625H256.391V2.65625H202.359V4.65625ZM255.455 4.00807L315.72 164.352L317.592 163.648L257.327 3.30443L255.455 4.00807ZM316.656 163H264.812V165H316.656V163ZM265.771 163.715L257.896 137.246L255.979 137.816L263.854 164.285L265.771 163.715ZM247.503 102.566L229.784 44.9249L227.872 45.5126L245.591 103.153L247.503 102.566ZM227.872 44.9266L210.262 102.567L212.175 103.152L229.784 45.5109L227.872 44.9266ZM211.219 103.859H246.547V101.859H211.219V103.859ZM332.844 3.65625V2.65625H331.844V3.65625H332.844ZM382.391 3.65625H383.391V2.65625H382.391V3.65625ZM382.391 59.7656H381.391V60.7656H382.391V59.7656ZM436.531 59.7656V60.7656H437.531V59.7656H436.531ZM436.531 3.65625V2.65625H435.531V3.65625H436.531ZM486.297 3.65625H487.297V2.65625H486.297V3.65625ZM486.297 164V165H487.297V164H486.297ZM436.531 164H435.531V165H436.531V164ZM436.531 99.1406H437.531V98.1406H436.531V99.1406ZM382.391 99.1406V98.1406H381.391V99.1406H382.391ZM382.391 164V165H383.391V164H382.391ZM332.844 164H331.844V165H332.844V164ZM332.844 4.65625H382.391V2.65625H332.844V4.65625ZM381.391 3.65625V59.7656H383.391V3.65625H381.391ZM382.391 60.7656H436.531V58.7656H382.391V60.7656ZM437.531 59.7656V3.65625H435.531V59.7656H437.531ZM436.531 4.65625H486.297V2.65625H436.531V4.65625ZM485.297 3.65625V164H487.297V3.65625H485.297ZM486.297 163H436.531V165H486.297V163ZM437.531 164V99.1406H435.531V164H437.531ZM436.531 98.1406H382.391V100.141H436.531V98.1406ZM381.391 99.1406V164H383.391V99.1406H381.391ZM382.391 163H332.844V165H382.391V163ZM333.844 164V3.65625H331.844V164H333.844ZM519.438 3.65625V2.65625H518.438V3.65625H519.438ZM568.984 3.65625H569.984V2.65625H568.984V3.65625ZM568.984 64.25H567.984V66.9526L569.744 64.9009L568.984 64.25ZM620.938 3.65625V2.65625H620.478L620.178 3.00535L620.938 3.65625ZM686.781 3.65625L687.501 4.35089L689.137 2.65625H686.781V3.65625ZM628.375 64.1406L627.656 63.446L627.118 64.0023L627.522 64.6621L628.375 64.1406ZM689.406 164V165H691.189L690.26 163.479L689.406 164ZM628.375 164L627.485 164.456L627.764 165H628.375V164ZM594.578 98.0469L595.468 97.5908L594.827 96.3389L593.855 97.3562L594.578 98.0469ZM568.984 124.844L568.261 124.153L567.984 124.443V124.844H568.984ZM568.984 164V165H569.984V164H568.984ZM519.438 164H518.438V165H519.438V164ZM519.438 4.65625H568.984V2.65625H519.438V4.65625ZM567.984 3.65625V64.25H569.984V3.65625H567.984ZM569.744 64.9009L621.697 4.30715L620.178 3.00535L568.225 63.5991L569.744 64.9009ZM620.938 4.65625H686.781V2.65625H620.938V4.65625ZM686.062 2.96161L627.656 63.446L629.094 64.8353L687.501 4.35089L686.062 2.96161ZM627.522 64.6621L688.553 164.521L690.26 163.479L629.228 63.6191L627.522 64.6621ZM689.406 163H628.375V165H689.406V163ZM629.265 163.544L595.468 97.5908L593.688 98.5029L627.485 164.456L629.265 163.544ZM593.855 97.3562L568.261 124.153L569.708 125.534L595.301 98.7376L593.855 97.3562ZM567.984 124.844V164H569.984V124.844H567.984ZM568.984 163H519.438V165H568.984V163ZM520.438 164V3.65625H518.438V164H520.438Z" fill="#777777" mask="url(#path-1-outside-1_0_1)"/>
<path d="M165.318 87.4297L168.467 72.1113H153.633V55.4004H171.797L176.096 33.7246H193.352L188.932 55.4004H202.191L206.551 33.7246H223.746L219.508 55.4004H227.803V72.1113H216.117L213.029 87.4297H227.803V104.141H209.699L205.4 125.453H188.145L192.383 104.141H179.184L174.824 125.453H157.689L162.109 104.141H153.633V87.4297H165.318ZM182.514 87.4297H195.773L198.922 72.1113H185.723L182.514 87.4297ZM295.555 109.348H264.312L260.014 124H231.98L265.342 35.2383H295.252L328.613 124H299.914L295.555 109.348ZM289.803 90.1543L279.994 58.2461L270.246 90.1543H289.803ZM337.574 35.2383H365.002V66.2988H394.973V35.2383H422.521V124H394.973V88.0957H365.002V124H337.574V35.2383ZM440.867 35.2383H468.295V68.7812L497.055 35.2383H533.504L501.172 68.7207L534.957 124H501.172L482.463 87.4902L468.295 102.324V124H440.867V35.2383Z" fill="white"/>
</svg>
